<svg viewBox="0 0 32 32" fill="none" xmlns="http://www.w3.org/2000/svg" width="32" height="32"><circle cx="16" cy="16" r="16" style="fill: rgb(79, 54, 144); opacity: 0.2;"></circle><path d="M27.8398 15.8398C27.8398 22.4673 22.4673 27.8398 15.8398 27.8398C9.21243 27.8398 3.83984 22.4673 3.83984 15.8398C3.83984 9.21243 9.21243 3.83984 15.8398 3.83984C22.4673 3.83984 27.8398 9.21243 27.8398 15.8398ZM5.82845 15.8398C5.82845 21.369 10.3107 25.8512 15.8398 25.8512C21.369 25.8512 25.8512 21.369 25.8512 15.8398C25.8512 10.3107 21.369 5.82845 15.8398 5.82845C10.3107 5.82845 5.82845 10.3107 5.82845 15.8398Z" style="fill: rgb(79, 54, 144);"></path><path d="M12.5673 12.284V13.2935L9.13834 15.1171L8.95494 15.2254L9.13335 15.3164L12.5673 17.1301V18.1693L8.0752 15.8922V14.5461L12.5673 12.284Z" style="fill: rgb(79, 54, 144);"></path><path d="M14.6418 19.369H13.472L17.0158 10.8984H18.1357L14.6418 19.369Z" style="fill: rgb(79, 54, 144);"></path><path d="M23.6046 14.5461V15.8922L19.1125 18.1693V17.1301L22.5465 15.3164L22.7264 15.2225L22.5415 15.1171L19.1125 13.2935V12.284L23.6046 14.5461Z" style="fill: rgb(79, 54, 144);"></path></svg>