<svg width="327" height="24" viewBox="0 0 327 24" fill="none" xmlns="http://www.w3.org/2000/svg">
<g clip-path="url(#clip0_1150_2709)">
<path d="M129 0H128V24H129V0Z" fill="white"/>
<path d="M16.1472 11.4981C16.1472 15.2961 13.9632 19.4152 8.11777 19.4152C3.85413 19.4312 0 17.0224 0 11.4981C0 6.89725 2.90666 3.35627 8.66377 3.66942C14.7902 4.01469 16.1472 8.76009 16.1472 11.4981ZM5.21111 8.60753C4.69057 9.47086 4.43121 10.4665 4.46437 11.474C4.46437 13.8026 5.61258 15.9143 8.09368 15.9143C10.5748 15.9143 11.6587 13.9712 11.6587 11.6667C11.7144 11.0018 11.6335 10.3326 11.4208 9.70012C11.2082 9.06767 10.8683 8.48544 10.4222 7.98926C10.0727 7.67737 9.66026 7.44425 9.21279 7.30572C8.76532 7.16718 8.29329 7.12646 7.82871 7.18632C7.30647 7.17509 6.79034 7.30028 6.33129 7.54952C5.87223 7.79877 5.48613 8.16344 5.21111 8.60753Z" fill="white"/>
<path d="M55.4273 5.3635C55.8303 4.86099 56.3405 4.45496 56.9207 4.17514C57.7897 3.83161 58.7163 3.65719 59.6507 3.66126C60.5758 3.63345 61.4936 3.8319 62.3246 4.23938C63.9304 5.04232 64.3078 6.42339 64.3078 8.75995V19.0376H59.9157V10.5987C59.9913 9.84333 59.9232 9.08048 59.715 8.35045C59.5401 7.98029 59.2567 7.67214 58.9024 7.46702C58.5481 7.26191 58.1398 7.16955 57.7317 7.20224C55.4032 7.20224 55.4032 9.0731 55.4032 10.944V19.0376H50.9629V4.04667H55.4273V5.3635Z" fill="white"/>
<path d="M48.8591 15.1596C48.4496 16.0187 47.1488 19.4152 41.3756 19.4152C36.9113 19.4152 33.7798 16.6852 33.7798 11.7631C33.7798 8.13381 35.5623 3.66944 41.4961 3.66944C42.4859 3.58863 43.4815 3.72177 44.4153 4.05982C45.3491 4.39787 46.1992 4.93292 46.9079 5.62862C48.8671 7.73233 48.9795 10.6631 49.0357 12.3653H38.3004C38.3004 14.2362 39.3362 16.107 41.7209 16.107C44.1056 16.107 44.9327 14.5012 45.5188 13.4573L48.8591 15.1596ZM44.4589 9.60319C44.4302 8.82541 44.1483 8.07828 43.656 7.47539C43.0647 6.94224 42.2921 6.65503 41.4961 6.67245C41.0739 6.67084 40.656 6.7571 40.2689 6.92575C39.8819 7.09439 39.5341 7.34173 39.2478 7.65204C38.77 8.21605 38.461 8.9035 38.3566 9.63531L44.4589 9.60319Z" fill="white"/>
<path d="M110.477 7.15429H113.424V4.0469H110.517V0.883301H106.117V4.03887H105.394L103.379 7.15429H106.093V14.2925C106.093 15.7297 106.093 16.7977 106.727 17.6889C107.675 19.07 109.345 19.1583 110.87 19.1583C111.652 19.1451 112.43 19.0672 113.199 18.9255V15.4728L111.593 15.529C110.413 15.529 110.413 14.7261 110.445 13.8348L110.477 7.15429Z" fill="white"/>
<path d="M66.5237 0.883301H70.9238V4.03887H75.5006L73.4852 7.15429H70.8676V13.8107C70.8676 14.7341 70.8676 15.5049 72.0158 15.5049L73.6217 15.4487V18.9014C72.8533 19.0431 72.0744 19.121 71.2931 19.1342C69.7675 19.1342 68.0814 19.0459 67.15 17.6648C66.5477 16.7736 66.5156 15.7056 66.5156 14.2684L66.5237 0.883301Z" fill="white"/>
<path d="M117.495 7.15427H116.949V4.50455H115.945V4.04688H118.475V4.50455H117.487L117.495 7.15427ZM121.759 7.15427H121.221V5.23523V4.60091L121.068 5.12282L120.434 7.15427H119.944L119.318 5.12282L119.157 4.60894V5.23523V7.15427H118.635V4.04688H119.374L120.177 6.50388L120.94 4.04688H121.678L121.759 7.15427Z" fill="white"/>
<path d="M89.3356 15.1676L88.5327 16.4683C87.7298 17.6246 86.2604 19.4071 82.0048 19.4071C77.5404 19.4071 74.5454 16.6771 74.5454 11.7551C74.5454 8.12575 76.3279 3.66138 82.2617 3.66138C83.2515 3.58057 84.2471 3.71371 85.1809 4.05177C86.1147 4.38982 86.9648 4.92486 87.6735 5.62056C89.6327 7.72428 89.7451 10.655 89.8014 12.3573H79.066C79.066 14.2281 79.9653 16.099 82.35 16.099C84.7348 16.099 85.4655 14.4931 86.0115 13.4493L89.3356 15.1676ZM85.1844 9.60317C85.1557 8.82538 84.8737 8.07825 84.3815 7.47537C83.7902 6.94221 83.0176 6.655 82.2216 6.67242C81.7994 6.67081 81.3814 6.75707 80.9944 6.92572C80.6073 7.09436 80.2596 7.34171 79.9733 7.65201C79.4954 8.21602 79.1865 8.90347 79.082 9.63528L85.1844 9.60317Z" fill="white"/>
<path d="M104.463 19.0378L98.9547 11.1449L103.548 4.03882H98.505L96.3371 7.39512L94.0005 4.03882H88.958L93.9122 11.1449L88.8135 19.0378H93.856L96.5298 14.8946L99.4204 19.0378H104.463Z" fill="white"/>
<path d="M22.2337 5.36379C22.7152 4.79596 23.3218 4.34746 24.0059 4.05351C24.6899 3.75955 25.4328 3.62814 26.1761 3.66958C29.8617 3.66958 32.4471 6.46383 32.4471 11.4662C32.4471 14.5414 31.323 19.4073 26.0236 19.4073C25.3069 19.4241 24.5954 19.2807 23.9412 18.9876C23.2869 18.6945 22.7063 18.2591 22.2417 17.7131V24.0001H17.7773V4.04696H22.2417L22.2337 5.36379ZM25.2287 7.12224C24.7886 7.12037 24.3542 7.22097 23.9598 7.41608C23.5654 7.6112 23.2218 7.89546 22.9563 8.24636C22.2922 9.21104 21.9673 10.3691 22.0329 11.5384C21.9501 12.7817 22.3305 14.0117 23.1009 14.9911C23.3511 15.2762 23.6583 15.5056 24.0027 15.6647C24.347 15.8237 24.7209 15.9088 25.1002 15.9145C27.2601 15.9145 28.2076 13.6421 28.2076 11.4421C28.2076 9.59531 27.6616 7.63612 25.8469 7.21056C25.6453 7.15639 25.4374 7.12939 25.2287 7.13027V7.12224Z" fill="white"/>
<path d="M142.85 19H151.798V17.3594H144.699V3.72727H142.85V19Z" fill="white"/>
<path d="M154.423 19H156.183V7.54545H154.423V19ZM155.318 5.63636C156.004 5.63636 156.571 5.09943 156.571 4.44318C156.571 3.78693 156.004 3.25 155.318 3.25C154.632 3.25 154.066 3.78693 154.066 4.44318C154.066 5.09943 154.632 5.63636 155.318 5.63636Z" fill="white"/>
<path d="M159.646 19H161.346V17.2401H161.555C161.942 17.8665 162.688 19.2386 164.896 19.2386C167.759 19.2386 169.758 16.9418 169.758 13.3026C169.758 9.69318 167.759 7.39631 164.866 7.39631C162.628 7.39631 161.942 8.76847 161.555 9.36506H161.405V3.72727H159.646V19ZM161.376 13.2727C161.376 10.7074 162.509 8.97727 164.657 8.97727C166.894 8.97727 167.998 10.8565 167.998 13.2727C167.998 15.7188 166.864 17.6577 164.657 17.6577C162.539 17.6577 161.376 15.8679 161.376 13.2727Z" fill="white"/>
<path d="M172.45 19H174.21V11.7514C174.21 10.2003 175.433 9.06676 177.103 9.06676C177.573 9.06676 178.058 9.15625 178.177 9.18608V7.39631C177.976 7.38139 177.513 7.36648 177.252 7.36648C175.88 7.36648 174.687 8.14204 174.269 9.27557H174.15V7.54545H172.45V19Z" fill="white"/>
<path d="M183.634 19.2685C185.633 19.2685 186.677 18.1946 187.035 17.4489H187.124V19H188.884V11.4531C188.884 7.81392 186.11 7.39631 184.648 7.39631C182.918 7.39631 180.949 7.9929 180.055 10.081L181.725 10.6776C182.113 9.84233 183.03 8.94744 184.708 8.94744C186.326 8.94744 187.124 9.80504 187.124 11.2741V11.3338C187.124 12.1839 186.259 12.1094 184.171 12.3778C182.046 12.6538 179.726 13.1236 179.726 15.7486C179.726 17.9858 181.456 19.2685 183.634 19.2685ZM183.903 17.6875C182.501 17.6875 181.486 17.0611 181.486 15.8381C181.486 14.4957 182.709 14.0781 184.081 13.8991C184.827 13.8097 186.826 13.6009 187.124 13.2429V14.8537C187.124 16.2855 185.991 17.6875 183.903 17.6875Z" fill="white"/>
<path d="M192.096 19H193.856V11.7514C193.856 10.2003 195.079 9.06676 196.75 9.06676C197.22 9.06676 197.704 9.15625 197.824 9.18608V7.39631C197.622 7.38139 197.16 7.36648 196.899 7.36648C195.527 7.36648 194.334 8.14204 193.916 9.27557H193.797V7.54545H192.096V19Z" fill="white"/>
<path d="M201.392 23.2955C202.98 23.2955 204.099 22.4528 204.763 20.6705L209.625 7.54545H207.716L204.554 16.6733H204.435L201.273 7.54545H199.364L203.599 19.0597L203.271 19.9545C202.63 21.6996 201.839 21.8636 200.557 21.5355L200.109 23.0866C200.288 23.1761 200.795 23.2955 201.392 23.2955Z" fill="white"/>
<path d="M218.719 19L220.255 14.6747H226.43L227.966 19H229.905L224.297 3.72727H222.388L216.78 19H218.719ZM220.837 13.0341L223.283 6.14347H223.402L225.848 13.0341H220.837Z" fill="white"/>
<path d="M232.046 23.2955H233.805V17.2401H233.955C234.342 17.8665 235.088 19.2386 237.296 19.2386C240.159 19.2386 242.158 16.9418 242.158 13.3026C242.158 9.69318 240.159 7.39631 237.266 7.39631C235.028 7.39631 234.342 8.76847 233.955 9.36506H233.746V7.54545H232.046V23.2955ZM233.776 13.2727C233.776 10.7074 234.909 8.97727 237.057 8.97727C239.294 8.97727 240.398 10.8565 240.398 13.2727C240.398 15.7188 239.264 17.6577 237.057 17.6577C234.939 17.6577 233.776 15.8679 233.776 13.2727Z" fill="white"/>
<path d="M244.842 23.2955H246.602V17.2401H246.752C247.139 17.8665 247.885 19.2386 250.092 19.2386C252.956 19.2386 254.955 16.9418 254.955 13.3026C254.955 9.69318 252.956 7.39631 250.063 7.39631C247.825 7.39631 247.139 8.76847 246.752 9.36506H246.543V7.54545H244.842V23.2955ZM246.573 13.2727C246.573 10.7074 247.706 8.97727 249.854 8.97727C252.091 8.97727 253.195 10.8565 253.195 13.2727C253.195 15.7188 252.061 17.6577 249.854 17.6577C247.736 17.6577 246.573 15.8679 246.573 13.2727Z" fill="white"/>
<path d="M259.399 3.72727H257.639V19H259.399V3.72727Z" fill="white"/>
<path d="M262.623 19H264.383V7.54545H262.623V19ZM263.518 5.63636C264.204 5.63636 264.77 5.09943 264.77 4.44318C264.77 3.78693 264.204 3.25 263.518 3.25C262.831 3.25 262.265 3.78693 262.265 4.44318C262.265 5.09943 262.831 5.63636 263.518 5.63636Z" fill="white"/>
<path d="M272.26 19.2386C274.795 19.2386 276.465 17.6875 276.764 15.6591H275.004C274.676 16.9119 273.632 17.6577 272.26 17.6577C270.171 17.6577 268.829 15.9276 268.829 13.2727C268.829 10.6776 270.201 8.97727 272.26 8.97727C273.811 8.97727 274.735 9.93182 275.004 10.9759H276.764C276.465 8.82812 274.646 7.39631 272.23 7.39631C269.127 7.39631 267.069 9.84233 267.069 13.3324C267.069 16.7628 269.038 19.2386 272.26 19.2386Z" fill="white"/>
<path d="M282.707 19.2685C284.706 19.2685 285.75 18.1946 286.108 17.4489H286.197V19H287.957V11.4531C287.957 7.81392 285.183 7.39631 283.722 7.39631C281.991 7.39631 280.023 7.9929 279.128 10.081L280.798 10.6776C281.186 9.84233 282.103 8.94744 283.781 8.94744C285.399 8.94744 286.197 9.80504 286.197 11.2741V11.3338C286.197 12.1839 285.332 12.1094 283.244 12.3778C281.119 12.6538 278.8 13.1236 278.8 15.7486C278.8 17.9858 280.53 19.2685 282.707 19.2685ZM282.976 17.6875C281.574 17.6875 280.56 17.0611 280.56 15.8381C280.56 14.4957 281.783 14.0781 283.155 13.8991C283.9 13.8097 285.899 13.6009 286.197 13.2429V14.8537C286.197 16.2855 285.064 17.6875 282.976 17.6875Z" fill="white"/>
<path d="M296.151 7.54545H293.705V4.80114H291.945V7.54545H290.215V9.03693H291.945V16.196C291.945 18.1946 293.556 19.1491 295.047 19.1491C295.704 19.1491 296.121 19.0298 296.36 18.9403L296.002 17.3594C295.853 17.3892 295.614 17.4489 295.226 17.4489C294.451 17.4489 293.705 17.2102 293.705 15.7188V9.03693H296.151V7.54545Z" fill="white"/>
<path d="M298.798 19H300.558V7.54545H298.798V19ZM299.693 5.63636C300.379 5.63636 300.946 5.09943 300.946 4.44318C300.946 3.78693 300.379 3.25 299.693 3.25C299.007 3.25 298.441 3.78693 298.441 4.44318C298.441 5.09943 299.007 5.63636 299.693 5.63636Z" fill="white"/>
<path d="M308.435 19.2386C311.538 19.2386 313.626 16.8821 313.626 13.3324C313.626 9.75284 311.538 7.39631 308.435 7.39631C305.333 7.39631 303.245 9.75284 303.245 13.3324C303.245 16.8821 305.333 19.2386 308.435 19.2386ZM308.435 17.6577C306.079 17.6577 305.005 15.6293 305.005 13.3324C305.005 11.0355 306.079 8.97727 308.435 8.97727C310.792 8.97727 311.866 11.0355 311.866 13.3324C311.866 15.6293 310.792 17.6577 308.435 17.6577Z" fill="white"/>
<path d="M318.072 12.1094C318.072 10.1108 319.31 8.97727 320.995 8.97727C322.629 8.97727 323.62 10.0437 323.62 11.8409V19H325.38V11.7216C325.38 8.7983 323.822 7.39631 321.502 7.39631C319.772 7.39631 318.699 8.17187 318.162 9.33523H318.012V7.54545H316.312V19H318.072V12.1094Z" fill="white"/>
</g>
<defs>
<clipPath id="clip0_1150_2709">
<rect width="327" height="24" fill="white"/>
</clipPath>
</defs>
</svg>
