<svg width="80" height="64" xmlns="http://www.w3.org/2000/svg" xmlns:xlink="http://www.w3.org/1999/xlink" xml:space="preserve" overflow="hidden"><defs><clipPath id="clip0"><rect x="340" y="259" width="80" height="64"/></clipPath></defs><g clip-path="url(#clip0)" transform="translate(-340 -259)"><path d="M551.821 212.373C550.766 211.144 549.281 210.393 547.494 210.167 546.818 210.091 546.21 210.091 545.783 210.117 545.835 208.963 545.835 206.557 545.356 204.252 545.079 202.848 544.173 201.644 542.764 200.793 542.06 200.367 541.408 200.116 541.054 199.99 540.55 198.611 539.242 197.735 538.964 197.558 538.94 197.534 538.763 197.409 538.562 197.283 536.976 196.156 532.098 192.746 527.895 191.068 526.736 190.59 525.653 190.366 524.675 190.416 523.87 190.439 523.142 190.666 522.51 191.042 522.035 191.318 521.705 191.643 521.455 191.945 521.33 191.794 521.177 191.643 521.053 191.519 520.119 190.616 518.887 189.864 517.531 189.362 515.969 188.787 514.234 188.536 512.398 188.585 510.233 188.66 504.396 190.39 501.981 191.118 497.477 192.496 493.227 193.976 491.588 194.752 489.882 195.579 488.091 196.481 486.686 197.634 485.076 198.937 484.142 200.367 483.892 201.995 482.23 201.995 480.946 202.572 480.193 203.701 479.436 204.827 478.181 207.009 476.844 209.566 476.345 210.492 474.707 213.626 474.606 214.253 474.606 214.277 474.582 214.328 474.582 214.402 474.482 214.929 474.228 216.133 474.457 217.486 474.735 219.114 475.588 220.418 476.973 221.345 476.997 221.722 477.074 222.324 477.376 223.025 478.128 224.856 479.638 226.009 480.773 226.634 481.88 227.262 482.91 227.863 483.816 228.414 486.078 229.741 487.716 230.72 488.823 231.021 490.007 231.346 491.061 231.372 491.693 231.346 491.766 231.949 491.967 232.951 492.446 233.928 493.452 236.035 495.215 237.161 497.526 237.161 497.554 237.161 497.578 237.161 497.602 237.161 502.71 237.088 511.944 237.161 512.02 237.161 512.044 237.161 512.068 237.161 512.068 237.161 512.145 237.138 513.578 237.011 515.063 236.334 517.076 235.408 518.159 233.853 518.134 231.874 518.106 227.687 518.134 226.56 518.134 226.56 518.134 226.409 518.082 226.233 517.957 226.133 514.335 222.549 514.335 222.549 514.335 222.549 514.612 222.123 514.785 221.621 514.785 221.07 514.785 219.541 513.554 218.313 512.044 218.313 510.511 218.313 509.279 219.541 509.279 221.07 509.279 222.573 510.511 223.803 512.044 223.803 512.572 223.803 513.075 223.626 513.505 223.351 516.975 226.786 516.975 226.786 516.975 226.786 516.975 227.286 516.951 228.69 516.975 231.874 516.999 233.403 516.194 234.529 514.584 235.283 513.405 235.859 512.197 235.983 512.02 236.009 511.44 236.009 502.561 235.934 497.602 236.009 495.718 236.035 494.334 235.182 493.5 233.478 493.098 232.675 492.925 231.848 492.848 231.322 504.344 231.322 504.344 231.322 504.344 231.322 504.622 232.55 505.729 233.478 507.037 233.478 508.546 233.478 509.782 232.249 509.782 230.745 509.782 229.242 508.546 228.014 507.037 228.014 505.729 228.014 504.622 228.94 504.344 230.17 492.192 230.17 492.192 230.17 492.192 230.17 492.168 230.17 492.168 230.17 492.168 230.17 492.144 230.17 492.144 230.17 492.12 230.17 492.096 230.17 490.735 230.37 489.149 229.918 488.167 229.642 486.509 228.664 484.395 227.437 483.49 226.885 482.459 226.284 481.324 225.658 479.94 224.856 478.962 223.853 478.458 222.65 478.281 222.248 478.205 221.897 478.156 221.621 491.693 221.621 491.693 221.621 491.693 221.621 491.943 222.851 493.05 223.777 494.358 223.777 495.891 223.777 497.099 222.549 497.099 221.046 497.099 219.541 495.891 218.313 494.358 218.313 493.05 218.313 491.943 219.241 491.693 220.469 477.702 220.469 477.702 220.469 477.702 220.469 474.908 218.638 475.512 215.631 475.713 214.629 475.713 214.554 475.737 214.503 475.737 214.453 475.89 213.751 479.465 206.833 481.147 204.351 481.678 203.574 482.556 203.173 483.792 203.149 483.566 205.93 483.49 210.669 483.49 212.222 482.23 212.474 481.3 213.576 481.3 214.904 481.3 216.407 482.532 217.636 484.041 217.636 485.551 217.636 486.782 216.407 486.782 214.904 486.782 213.576 485.853 212.497 484.621 212.222 484.645 210.669 484.721 205.93 484.923 203.225 485.579 203.324 486.255 203.5 486.96 203.75 487.213 203.875 488.368 204.853 494.004 210.593 496.572 213.2 499.063 215.782 499.916 216.684 499.691 217.085 499.566 217.537 499.566 218.037 499.566 219.541 500.798 220.77 502.307 220.77 503.817 220.77 505.053 219.541 505.053 218.037 505.053 216.534 503.817 215.304 502.307 215.304 501.704 215.304 501.152 215.48 500.697 215.831 499.739 214.854 497.228 212.247 494.66 209.641 488.066 202.923 487.64 202.773 487.386 202.671 486.581 202.397 485.804 202.197 485.048 202.096 485.277 200.767 486.054 199.615 487.414 198.512 488.622 197.534 490.208 196.707 491.717 195.981 502.609 206.908 502.609 206.908 502.609 206.908 502.384 207.309 502.259 207.761 502.259 208.262 502.259 209.766 503.491 210.994 505 210.994 506.51 210.994 507.741 209.766 507.741 208.262 507.741 206.757 506.51 205.529 505 205.529 504.396 205.529 503.841 205.706 503.39 206.055 492.848 195.454 492.848 195.454 492.848 195.454 494.635 194.726 497.904 193.573 501.426 192.496 506.912 198.06 506.912 198.06 506.912 198.06 506.586 198.512 506.385 199.089 506.385 199.69 506.385 201.193 507.617 202.422 509.126 202.422 510.635 202.422 511.867 201.193 511.867 199.69 511.867 198.187 510.635 196.957 509.126 196.957 508.623 196.957 508.172 197.082 507.77 197.308 502.662 192.095 502.662 192.095 502.662 192.095 506.812 190.868 510.08 190.015 511.767 189.814 514.814 193.748 514.814 193.748 514.814 193.748 514.814 209.516 514.814 209.516 514.814 209.516 513.578 209.766 512.648 210.869 512.648 212.172 512.648 213.701 513.88 214.904 515.393 214.904 516.903 214.904 518.134 213.701 518.134 212.172 518.134 210.869 517.201 209.766 515.969 209.516 515.969 193.548 515.969 193.548 515.969 193.548 515.969 193.422 515.92 193.323 515.844 193.222 513.175 189.737 513.175 189.737 513.175 189.737 516.021 189.789 518.585 190.715 520.247 192.345 521.177 193.248 521.729 194.301 521.729 195.152 521.729 246.761 521.729 246.761 521.729 246.761 520.497 247.013 519.567 248.116 519.567 249.445 519.567 250.948 520.799 252.176 522.308 252.176 523.818 252.176 525.054 250.948 525.054 249.445 525.054 248.116 524.12 247.013 522.888 246.761 522.888 195.152 522.888 195.152 522.888 195.152 522.888 194.426 522.638 193.649 522.159 192.873 522.333 192.645 522.638 192.27 523.142 191.994 523.617 191.719 524.172 191.568 524.776 191.568 525.581 191.542 526.487 191.719 527.465 192.12 528.853 192.671 530.459 193.498 532.271 194.551 529.127 200.041 529.127 200.041 529.127 200.041 528.825 199.94 528.523 199.891 528.197 199.891 526.688 199.891 525.452 201.118 525.452 202.622 525.452 204.125 526.688 205.355 528.197 205.355 529.707 205.355 530.938 204.125 530.938 202.622 530.938 201.844 530.612 201.144 530.109 200.642 533.253 195.152 533.253 195.152 533.253 195.152 533.378 195.227 533.506 195.303 533.631 195.378 535.571 196.582 537.129 197.685 537.91 198.21 538.159 198.411 538.288 198.486 538.361 198.536 538.514 198.611 539.721 199.414 540.023 200.592L540.023 200.617C540.047 200.617 540.047 200.617 540.047 200.617 540.627 202.523 540.224 203.951 540.023 204.627 539.822 205.279 536.046 211.571 533.579 215.631 533.406 215.606 533.229 215.581 533.052 215.581 531.542 215.581 530.31 216.809 530.31 218.313 530.31 219.816 531.542 221.046 533.052 221.046 534.561 221.046 535.793 219.816 535.793 218.313 535.793 217.41 535.342 216.583 534.637 216.082 535.193 215.179 536.401 213.2 537.608 211.169 540.953 205.579 541.078 205.129 541.13 204.928 541.408 203.951 541.633 202.798 541.38 201.344 542.39 201.795 543.871 202.747 544.25 204.502 544.777 207.083 544.652 209.941 544.628 210.593 535.294 225.382 535.294 225.382 535.294 225.382 535.016 225.281 534.686 225.206 534.36 225.206 532.85 225.206 531.619 226.433 531.619 227.964 531.619 229.467 532.85 230.695 534.36 230.695 535.869 230.695 537.105 229.467 537.105 227.964 537.105 227.187 536.803 226.484 536.276 225.983 545.534 211.294 545.534 211.294 545.534 211.294 545.884 211.27 546.564 211.194 547.369 211.319 548.878 211.495 550.086 212.097 550.939 213.099 552.602 215.054 552.553 217.335 552.477 219.767 552.477 220.344 552.449 220.919 552.477 221.496 552.553 226.508 551.418 228.238 550.211 229.341 548.577 230.872 544.954 230.194 544.93 230.194 544.902 230.17 544.902 230.17 544.902 230.17 544.878 230.17 544.878 230.17 544.878 230.17 543.521 229.969 542.462 229.341 541.758 228.313 541.355 227.737 541.178 227.21 541.106 226.935 543.569 222.776 543.569 222.776 543.569 222.776 543.948 222.976 544.35 223.075 544.805 223.075 546.31 223.075 547.546 221.847 547.546 220.344 547.546 218.84 546.31 217.611 544.805 217.611 543.296 217.611 542.06 218.84 542.06 220.344 542.06 220.994 542.285 221.572 542.664 222.048 539.999 226.56 539.999 226.56 539.999 226.56 539.922 226.659 539.894 226.81 539.922 226.935 539.922 226.986 540.096 227.913 540.776 228.916 541.355 229.767 542.438 230.844 544.298 231.247 544.374 231.697 544.499 232.5 544.551 233.403 544.604 235.057 544.35 236.235 543.823 236.735 543.746 236.81 543.746 236.81 543.746 236.81 542.237 238.264 541.331 239.117 538.916 239.117 537.958 239.117 537.004 239.143 536.099 239.167 534.589 239.218 533.156 239.242 532.5 239.143 532.069 239.066 531.015 238.641 530.033 237.913 529.256 237.288 528.322 236.259 528.245 234.831 528.149 232.099 528.245 215.907 528.245 212.825 529.505 212.573 530.435 211.47 530.435 210.141 530.435 208.638 529.203 207.41 527.694 207.41 526.185 207.41 524.953 208.638 524.953 210.141 524.953 211.47 525.883 212.549 527.114 212.825 527.09 215.982 526.99 232.099 527.114 234.88 527.267 238.264 531.015 240.043 532.299 240.27 532.701 240.345 533.281 240.345 533.985 240.345 534.589 240.345 535.318 240.345 536.123 240.321 537.028 240.295 537.982 240.27 538.916 240.27 541.81 240.27 542.941 239.167 544.551 237.638 544.628 237.562 544.628 237.562 544.628 237.562 545.405 236.81 545.759 235.408 545.682 233.351 545.658 232.6 545.582 231.923 545.509 231.422 545.86 231.447 546.286 231.497 546.765 231.497 548.15 231.497 549.861 231.247 551.016 230.194 551.922 229.341 552.553 228.365 552.956 227.111 553.431 225.681 553.66 223.853 553.608 221.496 553.608 220.919 553.632 220.344 553.632 219.792 553.709 217.26 553.761 214.653 551.821 212.373ZM510.434 221.07C510.434 220.193 511.163 219.465 512.044 219.465 512.926 219.465 513.63 220.193 513.63 221.07 513.63 221.371 513.53 221.673 513.381 221.923 513.252 221.948 513.127 221.998 513.051 222.097 512.95 222.173 512.902 222.298 512.873 222.399 512.648 222.549 512.346 222.65 512.044 222.65 511.163 222.65 510.434 221.923 510.434 221.07ZM507.037 229.166C507.918 229.166 508.623 229.868 508.623 230.745 508.623 231.622 507.918 232.324 507.037 232.324 506.159 232.324 505.451 231.622 505.451 230.745 505.451 229.868 506.159 229.166 507.037 229.166ZM494.358 219.441C495.239 219.441 495.968 220.167 495.968 221.046 495.968 221.923 495.239 222.623 494.358 222.623 493.476 222.623 492.772 221.923 492.772 221.046 492.772 220.167 493.476 219.441 494.358 219.441ZM503.893 218.037C503.893 218.914 503.189 219.616 502.307 219.616 501.426 219.616 500.721 218.914 500.721 218.037 500.721 217.636 500.846 217.285 501.1 217.01 501.1 216.984 501.1 216.984 501.1 216.984 501.402 216.659 501.828 216.433 502.307 216.433 503.189 216.433 503.893 217.16 503.893 218.037ZM485.651 214.904C485.651 215.782 484.923 216.484 484.041 216.484 483.16 216.484 482.459 215.782 482.459 214.904 482.459 214.026 483.16 213.299 484.041 213.299 484.923 213.299 485.651 214.026 485.651 214.904ZM516.975 212.172C516.975 213.049 516.271 213.777 515.393 213.777 514.512 213.777 513.807 213.049 513.807 212.172 513.807 211.294 514.512 210.593 515.393 210.593 516.271 210.593 516.975 211.294 516.975 212.172ZM506.586 208.262C506.586 209.139 505.882 209.842 505 209.842 504.119 209.842 503.414 209.139 503.414 208.262 503.414 207.86 503.567 207.485 503.793 207.209L503.817 207.209C504.095 206.882 504.521 206.658 505 206.658 505.882 206.658 506.586 207.384 506.586 208.262ZM510.712 199.69C510.712 200.567 510.008 201.269 509.126 201.269 508.245 201.269 507.54 200.567 507.54 199.69 507.54 199.214 507.741 198.788 508.067 198.512 508.067 198.486 508.067 198.486 508.067 198.486 508.345 198.236 508.724 198.086 509.126 198.086 510.008 198.086 510.712 198.812 510.712 199.69ZM523.894 249.445C523.894 250.32 523.19 251.024 522.308 251.024 521.427 251.024 520.727 250.32 520.727 249.445 520.727 248.566 521.427 247.84 522.308 247.84 523.19 247.84 523.894 248.566 523.894 249.445ZM528.197 204.202C527.316 204.202 526.611 203.5 526.611 202.622 526.611 201.745 527.316 201.017 528.197 201.017 528.499 201.017 528.773 201.118 529.026 201.269 529.026 201.269 529.055 201.269 529.079 201.294 529.505 201.569 529.783 202.071 529.783 202.622 529.783 203.5 529.079 204.202 528.197 204.202ZM533.052 219.917C532.174 219.917 531.47 219.19 531.47 218.313 531.47 217.436 532.174 216.734 533.052 216.734 533.253 216.734 533.43 216.76 533.607 216.835 533.631 216.835 533.631 216.835 533.655 216.859 534.235 217.085 534.662 217.662 534.662 218.313 534.662 219.19 533.933 219.917 533.052 219.917ZM534.36 229.541C533.482 229.541 532.778 228.815 532.778 227.964 532.778 227.086 533.482 226.36 534.36 226.36 534.662 226.36 534.939 226.433 535.193 226.584 535.193 226.584 535.193 226.609 535.217 226.609L535.241 226.609C535.668 226.911 535.97 227.387 535.97 227.964 535.97 228.815 535.241 229.541 534.36 229.541ZM544.805 218.739C545.682 218.739 546.387 219.465 546.387 220.344 546.387 221.221 545.682 221.923 544.805 221.923 544.427 221.923 544.048 221.772 543.771 221.546L543.746 221.52C543.42 221.246 543.215 220.82 543.215 220.344 543.215 219.465 543.919 218.739 544.805 218.739ZM526.084 210.141C526.084 209.264 526.813 208.562 527.694 208.562 528.576 208.562 529.28 209.264 529.28 210.141 529.28 211.02 528.576 211.746 527.694 211.746 526.813 211.746 526.084 211.02 526.084 210.141Z" stroke="#2E3C98" stroke-width="0.402516" stroke-linejoin="round" stroke-miterlimit="10" fill="#2E3C98" fill-rule="evenodd" transform="matrix(1.00379 0 0 1 -135.96 70.6226)"/></g></svg>