<svg width="231" height="16" viewBox="0 0 231 16" fill="none" xmlns="http://www.w3.org/2000/svg">
<path d="M1.02698 3.71801H4.13398C4.81864 3.71801 5.38198 3.79168 5.82398 3.93901C6.27464 4.08634 6.62564 4.28568 6.87698 4.53701C7.13698 4.78834 7.31464 5.08301 7.40998 5.42101C7.51398 5.75034 7.56598 6.10134 7.56598 6.47401C7.56598 6.86401 7.51398 7.23668 7.40998 7.59201C7.30598 7.94734 7.12398 8.25934 6.86398 8.52801C6.60398 8.79668 6.25298 9.00901 5.81098 9.16501C5.36898 9.32101 4.80998 9.39901 4.13398 9.39901H2.20998V13H1.02698V3.71801ZM4.12098 8.38501C4.57164 8.38501 4.94431 8.34168 5.23898 8.25501C5.53364 8.16834 5.76331 8.04268 5.92798 7.87801C6.09264 7.71334 6.20531 7.51834 6.26598 7.29301C6.33531 7.05901 6.36998 6.79901 6.36998 6.51301C6.36998 6.21834 6.33531 5.95834 6.26598 5.73301C6.19664 5.50768 6.07531 5.32134 5.90198 5.17401C5.72864 5.02668 5.49464 4.91834 5.19998 4.84901C4.91398 4.77101 4.54998 4.73201 4.10798 4.73201H2.20998V8.38501H4.12098Z" fill="white"/>
<path d="M11.5676 13.208C11.0563 13.208 10.6013 13.1257 10.2026 12.961C9.80397 12.7963 9.46597 12.5623 9.18864 12.259C8.91131 11.9557 8.69898 11.583 8.55164 11.141C8.40431 10.699 8.33064 10.205 8.33064 9.65901C8.33064 9.11301 8.40864 8.61901 8.56464 8.17701C8.72064 7.73501 8.94164 7.35801 9.22764 7.04601C9.51364 6.73401 9.85597 6.49568 10.2546 6.33101C10.662 6.15768 11.1126 6.07101 11.6066 6.07101C12.1093 6.07101 12.56 6.15334 12.9586 6.31801C13.3573 6.48268 13.6953 6.72101 13.9726 7.03301C14.2586 7.33634 14.4753 7.70468 14.6226 8.13801C14.77 8.57134 14.8436 9.06101 14.8436 9.60701C14.8436 10.1617 14.7656 10.66 14.6096 11.102C14.4623 11.544 14.2456 11.921 13.9596 12.233C13.6823 12.545 13.34 12.7877 12.9326 12.961C12.5253 13.1257 12.0703 13.208 11.5676 13.208ZM11.5806 12.272C11.9446 12.272 12.2566 12.207 12.5166 12.077C12.7766 11.947 12.989 11.765 13.1536 11.531C13.327 11.297 13.4526 11.0197 13.5306 10.699C13.6086 10.3697 13.6476 10.01 13.6476 9.62001C13.6476 9.23868 13.6086 8.88768 13.5306 8.56701C13.4526 8.24634 13.327 7.97334 13.1536 7.74801C12.989 7.51401 12.7766 7.33201 12.5166 7.20201C12.2566 7.07201 11.9446 7.00701 11.5806 7.00701C11.2166 7.00701 10.9046 7.07201 10.6446 7.20201C10.3933 7.33201 10.181 7.51401 10.0076 7.74801C9.84297 7.97334 9.72164 8.24634 9.64364 8.56701C9.56564 8.88768 9.52664 9.24301 9.52664 9.63301C9.52664 10.023 9.56564 10.3783 9.64364 10.699C9.72164 11.0197 9.84297 11.297 10.0076 11.531C10.1723 11.765 10.3846 11.947 10.6446 12.077C10.9046 12.207 11.2166 12.272 11.5806 12.272Z" fill="white"/>
<path d="M15.4018 6.27901H16.6368L17.9888 11.635L19.5358 6.31801H20.6798L22.1878 11.635L23.5268 6.27901H24.7228L22.7598 13H21.5638L20.0558 7.64401L18.5348 13H17.3518L15.4018 6.27901Z" fill="white"/>
<path d="M31.3236 11.115C31.2109 11.765 30.9206 12.2763 30.4526 12.649C29.9932 13.0217 29.3302 13.208 28.4636 13.208C27.4409 13.208 26.6566 12.9003 26.1106 12.285C25.5646 11.661 25.2916 10.7943 25.2916 9.68501C25.2916 9.10434 25.3696 8.58868 25.5256 8.13801C25.6816 7.68734 25.8982 7.31034 26.1756 7.00701C26.4616 6.70368 26.7996 6.47401 27.1896 6.31801C27.5796 6.15334 28.0042 6.07101 28.4636 6.07101C28.9836 6.07101 29.4299 6.15334 29.8026 6.31801C30.1752 6.48268 30.4786 6.71234 30.7126 7.00701C30.9552 7.29301 31.1329 7.63534 31.2456 8.03401C31.3669 8.43268 31.4276 8.87034 31.4276 9.34701V9.91901H26.4356C26.4356 10.257 26.4789 10.5733 26.5656 10.868C26.6609 11.154 26.7909 11.4053 26.9556 11.622C27.1289 11.83 27.3412 11.9947 27.5926 12.116C27.8439 12.2373 28.1342 12.298 28.4636 12.298C29.0269 12.298 29.4386 12.194 29.6986 11.986C29.9586 11.7693 30.1362 11.479 30.2316 11.115H31.3236ZM30.2966 9.07401C30.2966 8.75334 30.2619 8.46301 30.1926 8.20301C30.1232 7.94301 30.0149 7.72201 29.8676 7.54001C29.7202 7.34934 29.5296 7.20201 29.2956 7.09801C29.0616 6.99401 28.7799 6.94201 28.4506 6.94201C27.8526 6.94201 27.3846 7.12401 27.0466 7.48801C26.7172 7.85201 26.5222 8.38068 26.4616 9.07401H30.2966Z" fill="white"/>
<path d="M32.9266 6.27901H34.0446V7.31901C34.296 6.94634 34.5906 6.66034 34.9286 6.46101C35.2666 6.26168 35.6263 6.16201 36.0076 6.16201C36.2416 6.16201 36.441 6.17934 36.6056 6.21401L36.4626 7.26701C36.376 7.24968 36.2893 7.23668 36.2026 7.22801C36.116 7.21068 36.0206 7.20201 35.9166 7.20201C35.7086 7.20201 35.4963 7.24101 35.2796 7.31901C35.063 7.38834 34.8593 7.50968 34.6686 7.68301C34.478 7.84768 34.3263 8.03834 34.2136 8.25501C34.1096 8.47168 34.0576 8.72301 34.0576 9.00901V13H32.9266V6.27901Z" fill="white"/>
<path d="M43.1048 11.115C42.9922 11.765 42.7018 12.2763 42.2338 12.649C41.7745 13.0217 41.1115 13.208 40.2448 13.208C39.2222 13.208 38.4378 12.9003 37.8918 12.285C37.3458 11.661 37.0728 10.7943 37.0728 9.68501C37.0728 9.10434 37.1508 8.58868 37.3068 8.13801C37.4628 7.68734 37.6795 7.31034 37.9568 7.00701C38.2428 6.70368 38.5808 6.47401 38.9708 6.31801C39.3608 6.15334 39.7855 6.07101 40.2448 6.07101C40.7648 6.07101 41.2112 6.15334 41.5838 6.31801C41.9565 6.48268 42.2598 6.71234 42.4938 7.00701C42.7365 7.29301 42.9142 7.63534 43.0268 8.03401C43.1482 8.43268 43.2088 8.87034 43.2088 9.34701V9.91901H38.2168C38.2168 10.257 38.2602 10.5733 38.3468 10.868C38.4422 11.154 38.5722 11.4053 38.7368 11.622C38.9102 11.83 39.1225 11.9947 39.3738 12.116C39.6252 12.2373 39.9155 12.298 40.2448 12.298C40.8082 12.298 41.2198 12.194 41.4798 11.986C41.7398 11.7693 41.9175 11.479 42.0128 11.115H43.1048ZM42.0778 9.07401C42.0778 8.75334 42.0432 8.46301 41.9738 8.20301C41.9045 7.94301 41.7962 7.72201 41.6488 7.54001C41.5015 7.34934 41.3108 7.20201 41.0768 7.09801C40.8428 6.99401 40.5612 6.94201 40.2318 6.94201C39.6338 6.94201 39.1658 7.12401 38.8278 7.48801C38.4985 7.85201 38.3035 8.38068 38.2428 9.07401H42.0778Z" fill="white"/>
<path d="M49.5959 12.038C49.3186 12.4107 48.9979 12.701 48.6339 12.909C48.2699 13.1083 47.8409 13.208 47.3469 13.208C46.8529 13.208 46.4239 13.117 46.0599 12.935C45.7046 12.753 45.4099 12.506 45.1759 12.194C44.9419 11.8733 44.7686 11.4963 44.6559 11.063C44.5432 10.6297 44.4869 10.166 44.4869 9.67201C44.4869 9.11734 44.5562 8.61901 44.6949 8.17701C44.8336 7.72634 45.0286 7.34501 45.2799 7.03301C45.5399 6.72101 45.8519 6.48268 46.2159 6.31801C46.5886 6.15334 47.0089 6.07101 47.4769 6.07101C47.8322 6.07101 48.1919 6.14468 48.5559 6.29201C48.9199 6.43068 49.2579 6.69934 49.5699 7.09801V3.71801H50.7009V13H49.5959V12.038ZM49.6089 9.43801C49.6089 8.90068 49.5482 8.48468 49.4269 8.19001C49.3142 7.88668 49.1236 7.63101 48.8549 7.42301C48.6642 7.26701 48.4692 7.15868 48.2699 7.09801C48.0792 7.03734 47.8669 7.00701 47.6329 7.00701C47.3556 7.00701 47.0956 7.05468 46.8529 7.15001C46.6189 7.24534 46.4109 7.40134 46.2289 7.61801C46.0556 7.82601 45.9169 8.09901 45.8129 8.43701C45.7176 8.76634 45.6699 9.16934 45.6699 9.64601C45.6699 10.14 45.7219 10.556 45.8259 10.894C45.9386 11.232 46.0816 11.5007 46.2549 11.7C46.4369 11.8993 46.6362 12.0423 46.8529 12.129C47.0782 12.2157 47.3079 12.259 47.5419 12.259C47.7932 12.259 48.0186 12.2287 48.2179 12.168C48.4172 12.1073 48.6166 12.0033 48.8159 11.856C49.0759 11.648 49.2709 11.388 49.4009 11.076C49.5396 10.764 49.6089 10.3697 49.6089 9.89301V9.43801Z" fill="white"/>
<path d="M55.3466 3.71801H56.4776V7.21501C56.7549 6.85101 57.0756 6.56934 57.4396 6.37001C57.8036 6.17068 58.2326 6.07101 58.7266 6.07101C59.2032 6.07101 59.6192 6.15768 59.9746 6.33101C60.3386 6.50434 60.6376 6.74701 60.8716 7.05901C61.1142 7.37101 61.2919 7.74368 61.4046 8.17701C61.5259 8.60168 61.5866 9.07401 61.5866 9.59401C61.5866 10.1487 61.5172 10.6513 61.3786 11.102C61.2399 11.544 61.0406 11.921 60.7806 12.233C60.5206 12.545 60.2042 12.7877 59.8316 12.961C59.4676 13.1257 59.0559 13.208 58.5966 13.208C58.2066 13.208 57.8252 13.13 57.4526 12.974C57.0886 12.8093 56.7592 12.532 56.4646 12.142V13H55.3466V3.71801ZM56.4646 9.82801C56.4646 10.2613 56.5122 10.634 56.6076 10.946C56.7116 11.2493 56.8502 11.5007 57.0236 11.7C57.1969 11.8993 57.4049 12.0467 57.6476 12.142C57.8902 12.2287 58.1546 12.272 58.4406 12.272C58.7179 12.272 58.9736 12.2243 59.2076 12.129C59.4502 12.0337 59.6582 11.882 59.8316 11.674C60.0049 11.4573 60.1392 11.18 60.2346 10.842C60.3386 10.504 60.3906 10.0923 60.3906 9.60701C60.3906 9.11301 60.3342 8.70134 60.2216 8.37201C60.1176 8.03401 59.9789 7.76534 59.8056 7.56601C59.6322 7.36668 59.4329 7.22368 59.2076 7.13701C58.9909 7.05034 58.7656 7.00701 58.5316 7.00701C58.2369 7.00701 57.9639 7.05901 57.7126 7.16301C57.4612 7.25834 57.2402 7.40568 57.0496 7.60501C56.8676 7.79568 56.7246 8.04268 56.6206 8.34601C56.5166 8.64068 56.4646 8.98301 56.4646 9.37301V9.82801Z" fill="white"/>
<path d="M62.8235 14.43C63.0662 14.5167 63.3088 14.56 63.5515 14.56C63.8288 14.56 64.0412 14.4863 64.1885 14.339C64.3445 14.2003 64.4962 13.936 64.6435 13.546L64.9165 12.831L62.0695 6.27901H63.3825L65.5015 11.557L67.4385 6.27901H68.6865L65.7485 13.637C65.6272 13.9403 65.5058 14.2047 65.3845 14.43C65.2632 14.664 65.1288 14.8633 64.9815 15.028C64.8342 15.1927 64.6565 15.314 64.4485 15.392C64.2492 15.4787 64.0022 15.522 63.7075 15.522C63.4995 15.522 63.3132 15.509 63.1485 15.483C62.9838 15.457 62.8018 15.4093 62.6025 15.34L62.8235 14.43Z" fill="white"/>
<path d="M76.6567 13.234C76.024 13.234 75.4434 13.13 74.9147 12.922C74.3947 12.7053 73.944 12.3933 73.5627 11.986C73.19 11.57 72.8997 11.0587 72.6917 10.452C72.4837 9.84534 72.3797 9.15201 72.3797 8.37201C72.3797 7.59201 72.4837 6.89868 72.6917 6.29201C72.9084 5.68534 73.203 5.17401 73.5757 4.75801C73.957 4.34201 74.4077 4.02568 74.9277 3.80901C75.4564 3.59234 76.0327 3.48401 76.6567 3.48401C77.2894 3.48401 77.8657 3.59234 78.3857 3.80901C78.9144 4.01701 79.365 4.32901 79.7377 4.74501C80.1104 5.15234 80.4007 5.65934 80.6087 6.26601C80.8167 6.86401 80.9207 7.55301 80.9207 8.33301C80.9207 9.11301 80.8167 9.81068 80.6087 10.426C80.4094 11.0327 80.1234 11.544 79.7507 11.96C79.378 12.376 78.9274 12.6923 78.3987 12.909C77.8787 13.1257 77.298 13.234 76.6567 13.234ZM76.6567 12.194C77.1507 12.194 77.584 12.103 77.9567 11.921C78.338 11.739 78.6544 11.4833 78.9057 11.154C79.157 10.816 79.3477 10.413 79.4777 9.94501C79.6077 9.46834 79.6727 8.93968 79.6727 8.35901C79.6727 7.78701 79.6077 7.26701 79.4777 6.79901C79.3477 6.32234 79.1527 5.91501 78.8927 5.57701C78.6414 5.23901 78.3294 4.97901 77.9567 4.79701C77.584 4.61501 77.1507 4.52401 76.6567 4.52401C76.154 4.52401 75.712 4.61501 75.3307 4.79701C74.958 4.97901 74.6417 5.23901 74.3817 5.57701C74.1304 5.91501 73.9397 6.32234 73.8097 6.79901C73.6884 7.26701 73.6277 7.78701 73.6277 8.35901C73.6277 8.93968 73.6884 9.46834 73.8097 9.94501C73.9397 10.413 74.1304 10.816 74.3817 11.154C74.633 11.4833 74.945 11.739 75.3177 11.921C75.699 12.103 76.1454 12.194 76.6567 12.194Z" fill="white"/>
<path d="M82.4891 6.27901H83.6071V7.24101C83.8845 6.85968 84.2051 6.56934 84.5691 6.37001C84.9418 6.17068 85.3751 6.07101 85.8691 6.07101C86.3458 6.07101 86.7618 6.15768 87.1171 6.33101C87.4811 6.50434 87.7801 6.74701 88.0141 7.05901C88.2568 7.37101 88.4345 7.74368 88.5471 8.17701C88.6685 8.60168 88.7291 9.07401 88.7291 9.59401C88.7291 10.1487 88.6598 10.6513 88.5211 11.102C88.3825 11.544 88.1831 11.921 87.9231 12.233C87.6631 12.545 87.3468 12.7877 86.9741 12.961C86.6101 13.1257 86.1985 13.208 85.7391 13.208C85.3578 13.208 84.9808 13.1343 84.6081 12.987C84.2441 12.831 83.9148 12.558 83.6201 12.168V15.522H82.4891V6.27901ZM83.6071 9.82801C83.6071 10.2613 83.6548 10.634 83.7501 10.946C83.8541 11.2493 83.9928 11.5007 84.1661 11.7C84.3395 11.8993 84.5475 12.0467 84.7901 12.142C85.0328 12.2287 85.2971 12.272 85.5831 12.272C85.8605 12.272 86.1161 12.2243 86.3501 12.129C86.5928 12.0337 86.8008 11.882 86.9741 11.674C87.1475 11.4573 87.2818 11.18 87.3771 10.842C87.4811 10.504 87.5331 10.0923 87.5331 9.60701C87.5331 9.11301 87.4768 8.70134 87.3641 8.37201C87.2601 8.03401 87.1215 7.76534 86.9481 7.56601C86.7748 7.36668 86.5755 7.22368 86.3501 7.13701C86.1335 7.05034 85.9081 7.00701 85.6741 7.00701C85.3795 7.00701 85.1065 7.05901 84.8551 7.16301C84.6038 7.25834 84.3828 7.40568 84.1921 7.60501C84.0101 7.79568 83.8671 8.04268 83.7631 8.34601C83.6591 8.64068 83.6071 8.98301 83.6071 9.37301V9.82801Z" fill="white"/>
<path d="M96.057 11.115C95.9443 11.765 95.654 12.2763 95.186 12.649C94.7266 13.0217 94.0636 13.208 93.197 13.208C92.1743 13.208 91.39 12.9003 90.844 12.285C90.298 11.661 90.025 10.7943 90.025 9.68501C90.025 9.10434 90.103 8.58868 90.259 8.13801C90.415 7.68734 90.6316 7.31034 90.909 7.00701C91.195 6.70368 91.533 6.47401 91.923 6.31801C92.313 6.15334 92.7376 6.07101 93.197 6.07101C93.717 6.07101 94.1633 6.15334 94.536 6.31801C94.9086 6.48268 95.212 6.71234 95.446 7.00701C95.6886 7.29301 95.8663 7.63534 95.979 8.03401C96.1003 8.43268 96.161 8.87034 96.161 9.34701V9.91901H91.169C91.169 10.257 91.2123 10.5733 91.299 10.868C91.3943 11.154 91.5243 11.4053 91.689 11.622C91.8623 11.83 92.0746 11.9947 92.326 12.116C92.5773 12.2373 92.8676 12.298 93.197 12.298C93.7603 12.298 94.172 12.194 94.432 11.986C94.692 11.7693 94.8696 11.479 94.965 11.115H96.057ZM95.03 9.07401C95.03 8.75334 94.9953 8.46301 94.926 8.20301C94.8566 7.94301 94.7483 7.72201 94.601 7.54001C94.4536 7.34934 94.263 7.20201 94.029 7.09801C93.795 6.99401 93.5133 6.94201 93.184 6.94201C92.586 6.94201 92.118 7.12401 91.78 7.48801C91.4506 7.85201 91.2556 8.38068 91.195 9.07401H95.03Z" fill="white"/>
<path d="M97.66 6.27901H98.778V7.30601C99.1074 6.86401 99.4714 6.54768 99.87 6.35701C100.269 6.16634 100.689 6.07101 101.131 6.07101C101.894 6.07101 102.457 6.27901 102.821 6.69501C103.194 7.11101 103.38 7.72201 103.38 8.52801V13H102.249V8.74901C102.249 8.12501 102.136 7.68734 101.911 7.43601C101.686 7.17601 101.339 7.04601 100.871 7.04601C100.62 7.04601 100.368 7.08934 100.117 7.17601C99.8744 7.26268 99.6534 7.40134 99.454 7.59201C99.2374 7.78268 99.0727 7.98634 98.96 8.20301C98.8474 8.41101 98.791 8.68401 98.791 9.02201V13H97.66V6.27901Z" fill="white"/>
<path d="M107.505 4.78401H104.437V3.71801H111.782V4.78401H108.714V13H107.505V4.78401Z" fill="white"/>
<path d="M116.941 11.115C116.828 11.765 116.538 12.2763 116.07 12.649C115.61 13.0217 114.947 13.208 114.081 13.208C113.058 13.208 112.274 12.9003 111.728 12.285C111.182 11.661 110.909 10.7943 110.909 9.68501C110.909 9.10434 110.987 8.58868 111.143 8.13801C111.299 7.68734 111.515 7.31034 111.793 7.00701C112.079 6.70368 112.417 6.47401 112.807 6.31801C113.197 6.15334 113.621 6.07101 114.081 6.07101C114.601 6.07101 115.047 6.15334 115.42 6.31801C115.792 6.48268 116.096 6.71234 116.33 7.00701C116.572 7.29301 116.75 7.63534 116.863 8.03401C116.984 8.43268 117.045 8.87034 117.045 9.34701V9.91901H112.053C112.053 10.257 112.096 10.5733 112.183 10.868C112.278 11.154 112.408 11.4053 112.573 11.622C112.746 11.83 112.958 11.9947 113.21 12.116C113.461 12.2373 113.751 12.298 114.081 12.298C114.644 12.298 115.056 12.194 115.316 11.986C115.576 11.7693 115.753 11.479 115.849 11.115H116.941ZM115.914 9.07401C115.914 8.75334 115.879 8.46301 115.81 8.20301C115.74 7.94301 115.632 7.72201 115.485 7.54001C115.337 7.34934 115.147 7.20201 114.913 7.09801C114.679 6.99401 114.397 6.94201 114.068 6.94201C113.47 6.94201 113.002 7.12401 112.664 7.48801C112.334 7.85201 112.139 8.38068 112.079 9.07401H115.914Z" fill="white"/>
<path d="M119.969 9.46401L117.72 6.27901H119.046L120.645 8.65801L122.309 6.27901H123.518L121.308 9.45101L123.752 13H122.439L120.593 10.283L118.734 13H117.486L119.969 9.46401Z" fill="white"/>
<path d="M125.396 7.17601H124.356V6.27901H125.396V4.44601H126.527V6.27901H128.308V7.17601H126.527V11.115C126.527 11.4443 126.6 11.7087 126.748 11.908C126.895 12.1073 127.12 12.207 127.424 12.207C127.614 12.207 127.779 12.194 127.918 12.168C128.065 12.142 128.199 12.1073 128.321 12.064L128.516 12.935C128.342 12.9957 128.152 13.0433 127.944 13.078C127.744 13.1213 127.506 13.143 127.229 13.143C126.847 13.143 126.54 13.0867 126.306 12.974C126.072 12.8613 125.885 12.701 125.747 12.493C125.608 12.285 125.513 12.038 125.461 11.752C125.417 11.466 125.396 11.154 125.396 10.816V7.17601Z" fill="white"/>
<path d="M132.563 3.71801H135.813C136.489 3.71801 137.091 3.81334 137.62 4.00401C138.157 4.18601 138.608 4.46768 138.972 4.84901C139.345 5.23034 139.631 5.70701 139.83 6.27901C140.029 6.85101 140.129 7.52268 140.129 8.29401C140.129 9.07401 140.021 9.75868 139.804 10.348C139.596 10.9373 139.293 11.427 138.894 11.817C138.495 12.207 138.01 12.5017 137.438 12.701C136.866 12.9003 136.225 13 135.514 13H132.563V3.71801ZM135.566 11.96C136.719 11.96 137.559 11.6393 138.088 10.998C138.617 10.348 138.881 9.45534 138.881 8.32001C138.881 7.75668 138.82 7.25401 138.699 6.81201C138.586 6.37001 138.404 5.99734 138.153 5.69401C137.91 5.38201 137.594 5.14801 137.204 4.99201C136.814 4.82734 136.35 4.74501 135.813 4.74501H133.759V11.96H135.566Z" fill="white"/>
<path d="M147.498 11.115C147.386 11.765 147.095 12.2763 146.627 12.649C146.168 13.0217 145.505 13.208 144.638 13.208C143.616 13.208 142.831 12.9003 142.285 12.285C141.739 11.661 141.466 10.7943 141.466 9.68501C141.466 9.10434 141.544 8.58868 141.7 8.13801C141.856 7.68734 142.073 7.31034 142.35 7.00701C142.636 6.70368 142.974 6.47401 143.364 6.31801C143.754 6.15334 144.179 6.07101 144.638 6.07101C145.158 6.07101 145.605 6.15334 145.977 6.31801C146.35 6.48268 146.653 6.71234 146.887 7.00701C147.13 7.29301 147.308 7.63534 147.42 8.03401C147.542 8.43268 147.602 8.87034 147.602 9.34701V9.91901H142.61C142.61 10.257 142.654 10.5733 142.74 10.868C142.836 11.154 142.966 11.4053 143.13 11.622C143.304 11.83 143.516 11.9947 143.767 12.116C144.019 12.2373 144.309 12.298 144.638 12.298C145.202 12.298 145.613 12.194 145.873 11.986C146.133 11.7693 146.311 11.479 146.406 11.115H147.498ZM146.471 9.07401C146.471 8.75334 146.437 8.46301 146.367 8.20301C146.298 7.94301 146.19 7.72201 146.042 7.54001C145.895 7.34934 145.704 7.20201 145.47 7.09801C145.236 6.99401 144.955 6.94201 144.625 6.94201C144.027 6.94201 143.559 7.12401 143.221 7.48801C142.892 7.85201 142.697 8.38068 142.636 9.07401H146.471Z" fill="white"/>
<path d="M148.131 6.27901H149.444L151.446 11.739L153.487 6.27901H154.735L152.031 13H150.822L148.131 6.27901Z" fill="white"/>
<path d="M161.247 11.115C161.135 11.765 160.844 12.2763 160.376 12.649C159.917 13.0217 159.254 13.208 158.387 13.208C157.365 13.208 156.58 12.9003 156.034 12.285C155.488 11.661 155.215 10.7943 155.215 9.68501C155.215 9.10434 155.293 8.58868 155.449 8.13801C155.605 7.68734 155.822 7.31034 156.099 7.00701C156.385 6.70368 156.723 6.47401 157.113 6.31801C157.503 6.15334 157.928 6.07101 158.387 6.07101C158.907 6.07101 159.354 6.15334 159.726 6.31801C160.099 6.48268 160.402 6.71234 160.636 7.00701C160.879 7.29301 161.057 7.63534 161.169 8.03401C161.291 8.43268 161.351 8.87034 161.351 9.34701V9.91901H156.359C156.359 10.257 156.403 10.5733 156.489 10.868C156.585 11.154 156.715 11.4053 156.879 11.622C157.053 11.83 157.265 11.9947 157.516 12.116C157.768 12.2373 158.058 12.298 158.387 12.298C158.951 12.298 159.362 12.194 159.622 11.986C159.882 11.7693 160.06 11.479 160.155 11.115H161.247ZM160.22 9.07401C160.22 8.75334 160.186 8.46301 160.116 8.20301C160.047 7.94301 159.939 7.72201 159.791 7.54001C159.644 7.34934 159.453 7.20201 159.219 7.09801C158.985 6.99401 158.704 6.94201 158.374 6.94201C157.776 6.94201 157.308 7.12401 156.97 7.48801C156.641 7.85201 156.446 8.38068 156.385 9.07401H160.22Z" fill="white"/>
<path d="M162.876 3.71801H164.007V13H162.876V3.71801Z" fill="white"/>
<path d="M168.786 13.208C168.275 13.208 167.82 13.1257 167.421 12.961C167.023 12.7963 166.685 12.5623 166.407 12.259C166.13 11.9557 165.918 11.583 165.77 11.141C165.623 10.699 165.549 10.205 165.549 9.65901C165.549 9.11301 165.627 8.61901 165.783 8.17701C165.939 7.73501 166.16 7.35801 166.446 7.04601C166.732 6.73401 167.075 6.49568 167.473 6.33101C167.881 6.15768 168.331 6.07101 168.825 6.07101C169.328 6.07101 169.779 6.15334 170.177 6.31801C170.576 6.48268 170.914 6.72101 171.191 7.03301C171.477 7.33634 171.694 7.70468 171.841 8.13801C171.989 8.57134 172.062 9.06101 172.062 9.60701C172.062 10.1617 171.984 10.66 171.828 11.102C171.681 11.544 171.464 11.921 171.178 12.233C170.901 12.545 170.559 12.7877 170.151 12.961C169.744 13.1257 169.289 13.208 168.786 13.208ZM168.799 12.272C169.163 12.272 169.475 12.207 169.735 12.077C169.995 11.947 170.208 11.765 170.372 11.531C170.546 11.297 170.671 11.0197 170.749 10.699C170.827 10.3697 170.866 10.01 170.866 9.62001C170.866 9.23868 170.827 8.88768 170.749 8.56701C170.671 8.24634 170.546 7.97334 170.372 7.74801C170.208 7.51401 169.995 7.33201 169.735 7.20201C169.475 7.07201 169.163 7.00701 168.799 7.00701C168.435 7.00701 168.123 7.07201 167.863 7.20201C167.612 7.33201 167.4 7.51401 167.226 7.74801C167.062 7.97334 166.94 8.24634 166.862 8.56701C166.784 8.88768 166.745 9.24301 166.745 9.63301C166.745 10.023 166.784 10.3783 166.862 10.699C166.94 11.0197 167.062 11.297 167.226 11.531C167.391 11.765 167.603 11.947 167.863 12.077C168.123 12.207 168.435 12.272 168.799 12.272Z" fill="white"/>
<path d="M173.578 6.27901H174.696V7.24101C174.973 6.85968 175.294 6.56934 175.658 6.37001C176.031 6.17068 176.464 6.07101 176.958 6.07101C177.435 6.07101 177.851 6.15768 178.206 6.33101C178.57 6.50434 178.869 6.74701 179.103 7.05901C179.346 7.37101 179.523 7.74368 179.636 8.17701C179.757 8.60168 179.818 9.07401 179.818 9.59401C179.818 10.1487 179.749 10.6513 179.61 11.102C179.471 11.544 179.272 11.921 179.012 12.233C178.752 12.545 178.436 12.7877 178.063 12.961C177.699 13.1257 177.287 13.208 176.828 13.208C176.447 13.208 176.07 13.1343 175.697 12.987C175.333 12.831 175.004 12.558 174.709 12.168V15.522H173.578V6.27901ZM174.696 9.82801C174.696 10.2613 174.744 10.634 174.839 10.946C174.943 11.2493 175.082 11.5007 175.255 11.7C175.428 11.8993 175.636 12.0467 175.879 12.142C176.122 12.2287 176.386 12.272 176.672 12.272C176.949 12.272 177.205 12.2243 177.439 12.129C177.682 12.0337 177.89 11.882 178.063 11.674C178.236 11.4573 178.371 11.18 178.466 10.842C178.57 10.504 178.622 10.0923 178.622 9.60701C178.622 9.11301 178.566 8.70134 178.453 8.37201C178.349 8.03401 178.21 7.76534 178.037 7.56601C177.864 7.36668 177.664 7.22368 177.439 7.13701C177.222 7.05034 176.997 7.00701 176.763 7.00701C176.468 7.00701 176.195 7.05901 175.944 7.16301C175.693 7.25834 175.472 7.40568 175.281 7.60501C175.099 7.79568 174.956 8.04268 174.852 8.34601C174.748 8.64068 174.696 8.98301 174.696 9.37301V9.82801Z" fill="white"/>
<path d="M187.146 11.115C187.033 11.765 186.743 12.2763 186.275 12.649C185.816 13.0217 185.153 13.208 184.286 13.208C183.263 13.208 182.479 12.9003 181.933 12.285C181.387 11.661 181.114 10.7943 181.114 9.68501C181.114 9.10434 181.192 8.58868 181.348 8.13801C181.504 7.68734 181.721 7.31034 181.998 7.00701C182.284 6.70368 182.622 6.47401 183.012 6.31801C183.402 6.15334 183.827 6.07101 184.286 6.07101C184.806 6.07101 185.252 6.15334 185.625 6.31801C185.998 6.48268 186.301 6.71234 186.535 7.00701C186.778 7.29301 186.955 7.63534 187.068 8.03401C187.189 8.43268 187.25 8.87034 187.25 9.34701V9.91901H182.258C182.258 10.257 182.301 10.5733 182.388 10.868C182.483 11.154 182.613 11.4053 182.778 11.622C182.951 11.83 183.164 11.9947 183.415 12.116C183.666 12.2373 183.957 12.298 184.286 12.298C184.849 12.298 185.261 12.194 185.521 11.986C185.781 11.7693 185.959 11.479 186.054 11.115H187.146ZM186.119 9.07401C186.119 8.75334 186.084 8.46301 186.015 8.20301C185.946 7.94301 185.837 7.72201 185.69 7.54001C185.543 7.34934 185.352 7.20201 185.118 7.09801C184.884 6.99401 184.602 6.94201 184.273 6.94201C183.675 6.94201 183.207 7.12401 182.869 7.48801C182.54 7.85201 182.345 8.38068 182.284 9.07401H186.119Z" fill="white"/>
<path d="M188.749 6.27901H189.867V7.31901C190.118 6.94634 190.413 6.66034 190.751 6.46101C191.089 6.26168 191.449 6.16201 191.83 6.16201C192.064 6.16201 192.263 6.17934 192.428 6.21401L192.285 7.26701C192.198 7.24968 192.112 7.23668 192.025 7.22801C191.938 7.21068 191.843 7.20201 191.739 7.20201C191.531 7.20201 191.319 7.24101 191.102 7.31901C190.885 7.38834 190.682 7.50968 190.491 7.68301C190.3 7.84768 190.149 8.03834 190.036 8.25501C189.932 8.47168 189.88 8.72301 189.88 9.00901V13H188.749V6.27901Z" fill="white"/>
<path d="M204.165 9.94501C204.113 10.413 203.996 10.8507 203.814 11.258C203.632 11.6567 203.385 12.0033 203.073 12.298C202.761 12.5927 202.38 12.8223 201.929 12.987C201.487 13.1517 200.972 13.234 200.382 13.234C199.741 13.234 199.165 13.1257 198.653 12.909C198.142 12.6923 197.709 12.376 197.353 11.96C196.998 11.544 196.721 11.037 196.521 10.439C196.331 9.83234 196.235 9.14334 196.235 8.37201C196.235 7.59201 196.339 6.89868 196.547 6.29201C196.755 5.68534 197.046 5.17401 197.418 4.75801C197.791 4.34201 198.229 4.02568 198.731 3.80901C199.243 3.59234 199.793 3.48401 200.382 3.48401C200.954 3.48401 201.448 3.55768 201.864 3.70501C202.28 3.85234 202.631 4.06034 202.917 4.32901C203.212 4.59768 203.446 4.91834 203.619 5.29101C203.801 5.66368 203.94 6.07534 204.035 6.52601L202.865 6.72101C202.787 6.38301 202.683 6.07968 202.553 5.81101C202.432 5.53368 202.272 5.29968 202.072 5.10901C201.882 4.91834 201.648 4.77534 201.37 4.68001C201.102 4.57601 200.772 4.52401 200.382 4.52401C199.923 4.52401 199.511 4.61934 199.147 4.81001C198.792 4.99201 198.489 5.25201 198.237 5.59001C197.995 5.91934 197.808 6.32234 197.678 6.79901C197.548 7.26701 197.483 7.78701 197.483 8.35901C197.483 8.93101 197.548 9.45534 197.678 9.93201C197.808 10.4 197.995 10.803 198.237 11.141C198.489 11.479 198.792 11.739 199.147 11.921C199.511 12.103 199.927 12.194 200.395 12.194C200.82 12.194 201.18 12.142 201.474 12.038C201.778 11.9253 202.025 11.7693 202.215 11.57C202.415 11.3707 202.571 11.1323 202.683 10.855C202.796 10.5777 202.878 10.2743 202.93 9.94501H204.165Z" fill="white"/>
<path d="M205.66 3.71801H206.791V13H205.66V3.71801Z" fill="white"/>
<path d="M211.57 13.208C211.058 13.208 210.603 13.1257 210.205 12.961C209.806 12.7963 209.468 12.5623 209.191 12.259C208.913 11.9557 208.701 11.583 208.554 11.141C208.406 10.699 208.333 10.205 208.333 9.65901C208.333 9.11301 208.411 8.61901 208.567 8.17701C208.723 7.73501 208.944 7.35801 209.23 7.04601C209.516 6.73401 209.858 6.49568 210.257 6.33101C210.664 6.15768 211.115 6.07101 211.609 6.07101C212.111 6.07101 212.562 6.15334 212.961 6.31801C213.359 6.48268 213.697 6.72101 213.975 7.03301C214.261 7.33634 214.477 7.70468 214.625 8.13801C214.772 8.57134 214.846 9.06101 214.846 9.60701C214.846 10.1617 214.768 10.66 214.612 11.102C214.464 11.544 214.248 11.921 213.962 12.233C213.684 12.545 213.342 12.7877 212.935 12.961C212.527 13.1257 212.072 13.208 211.57 13.208ZM211.583 12.272C211.947 12.272 212.259 12.207 212.519 12.077C212.779 11.947 212.991 11.765 213.156 11.531C213.329 11.297 213.455 11.0197 213.533 10.699C213.611 10.3697 213.65 10.01 213.65 9.62001C213.65 9.23868 213.611 8.88768 213.533 8.56701C213.455 8.24634 213.329 7.97334 213.156 7.74801C212.991 7.51401 212.779 7.33201 212.519 7.20201C212.259 7.07201 211.947 7.00701 211.583 7.00701C211.219 7.00701 210.907 7.07201 210.647 7.20201C210.395 7.33201 210.183 7.51401 210.01 7.74801C209.845 7.97334 209.724 8.24634 209.646 8.56701C209.568 8.88768 209.529 9.24301 209.529 9.63301C209.529 10.023 209.568 10.3783 209.646 10.699C209.724 11.0197 209.845 11.297 210.01 11.531C210.174 11.765 210.387 11.947 210.647 12.077C210.907 12.207 211.219 12.272 211.583 12.272Z" fill="white"/>
<path d="M216.322 6.27901H217.453V10.517C217.453 11.141 217.553 11.583 217.752 11.843C217.96 12.103 218.294 12.233 218.753 12.233C219.256 12.233 219.711 12.051 220.118 11.687C220.335 11.4963 220.5 11.297 220.612 11.089C220.725 10.8723 220.781 10.595 220.781 10.257V6.27901H221.912V13H220.794V11.96C220.465 12.3933 220.11 12.7097 219.728 12.909C219.347 13.1083 218.935 13.208 218.493 13.208C217.731 13.208 217.176 13.0043 216.829 12.597C216.491 12.181 216.322 11.5613 216.322 10.738V6.27901Z" fill="white"/>
<path d="M228.536 12.038C228.259 12.4107 227.938 12.701 227.574 12.909C227.21 13.1083 226.781 13.208 226.287 13.208C225.793 13.208 225.364 13.117 225 12.935C224.645 12.753 224.35 12.506 224.116 12.194C223.882 11.8733 223.709 11.4963 223.596 11.063C223.484 10.6297 223.427 10.166 223.427 9.67201C223.427 9.11734 223.497 8.61901 223.635 8.17701C223.774 7.72634 223.969 7.34501 224.22 7.03301C224.48 6.72101 224.792 6.48268 225.156 6.31801C225.529 6.15334 225.949 6.07101 226.417 6.07101C226.773 6.07101 227.132 6.14468 227.496 6.29201C227.86 6.43068 228.198 6.69934 228.51 7.09801V3.71801H229.641V13H228.536V12.038ZM228.549 9.43801C228.549 8.90068 228.489 8.48468 228.367 8.19001C228.255 7.88668 228.064 7.63101 227.795 7.42301C227.605 7.26701 227.41 7.15868 227.21 7.09801C227.02 7.03734 226.807 7.00701 226.573 7.00701C226.296 7.00701 226.036 7.05468 225.793 7.15001C225.559 7.24534 225.351 7.40134 225.169 7.61801C224.996 7.82601 224.857 8.09901 224.753 8.43701C224.658 8.76634 224.61 9.16934 224.61 9.64601C224.61 10.14 224.662 10.556 224.766 10.894C224.879 11.232 225.022 11.5007 225.195 11.7C225.377 11.8993 225.577 12.0423 225.793 12.129C226.019 12.2157 226.248 12.259 226.482 12.259C226.734 12.259 226.959 12.2287 227.158 12.168C227.358 12.1073 227.557 12.0033 227.756 11.856C228.016 11.648 228.211 11.388 228.341 11.076C228.48 10.764 228.549 10.3697 228.549 9.89301V9.43801Z" fill="white"/>
</svg>
